<svg width="130" height="130" viewBox="0 0 130 130" fill="none" xmlns="http://www.w3.org/2000/svg">
<g clip-path="url(#clip0_281_2)">
<path d="M36.9903 80.5205C34.5727 75.6054 33.3187 70.2054 33.3243 64.734C33.119 60.4714 33.7975 56.2123 35.3178 52.2214C36.8381 48.2305 39.1675 44.5931 42.1615 41.5351C45.1554 38.4771 48.7498 36.064 52.7214 34.4456C56.6931 32.8272 60.957 32.0381 65.2483 32.1273C70.9292 32.1086 76.5186 33.5494 81.4747 36.31L103.807 14.1061C92.3133 6.77444 78.9028 2.96938 65.2483 3.16554C27.3926 3.16554 0.00600614 29.1816 0.00600614 64.7101C-0.195682 78.9305 4.68794 92.7602 13.7865 103.734L36.9903 80.5205Z" fill="#E56919"/>
<path d="M93.5121 48.613C96.0301 53.6162 97.2882 59.1526 97.1781 64.7461C97.2965 69.0513 96.5561 73.3372 94.9996 77.3564C93.443 81.3756 91.1012 85.0484 88.1093 88.1629C85.1163 91.1379 81.5523 93.4845 77.6292 95.0632C73.7061 96.6419 69.5038 97.4205 65.2721 97.3528C59.4568 97.4027 53.734 95.9049 48.6971 93.0147L26.521 115.213C38.0616 122.596 51.5253 126.456 65.2481 126.315C103.11 126.315 130.49 100.472 130.49 64.9134C130.714 50.607 125.762 36.6967 116.536 25.7161L93.5121 48.613Z" fill="white"/>
</g>
<defs>
<clipPath id="clip0_281_2">
<rect width="130" height="130" fill="white"/>
</clipPath>
</defs>
</svg>
