<svg width="1081" height="227" viewBox="0 0 1081 227" fill="none" xmlns="http://www.w3.org/2000/svg">
<g clip-path="url(#clip0_280_5)">
<path d="M225.755 178.249C212.93 178.365 200.47 173.988 190.538 165.879L186.334 162.392L181.302 174.048L156.024 174.222V0H190.538V64.9797L196.814 61.1447C205.534 55.8512 215.552 53.0777 225.755 53.1325C233.946 52.9544 242.091 54.4009 249.719 57.3884C257.347 60.3758 264.307 64.8449 270.196 70.5373C281.642 82.6667 287.844 98.8157 287.456 115.484C287.468 152.61 262.191 178.249 225.755 178.249ZM220.002 83.1287C215.73 83.0743 211.491 83.8837 207.541 85.5083C203.59 87.1329 200.009 89.539 197.013 92.5821C194.017 95.6252 191.667 99.2423 190.105 103.216C188.544 107.19 187.802 111.438 187.926 115.706C187.843 119.967 188.612 124.203 190.187 128.164C191.762 132.125 194.111 135.733 197.098 138.776C200.085 141.819 203.649 144.236 207.581 145.887C211.514 147.537 215.736 148.387 220.002 148.387C224.267 148.387 228.489 147.537 232.422 145.887C236.355 144.236 239.919 141.819 242.905 138.776C245.892 135.733 248.241 132.125 249.816 128.164C251.391 124.203 252.16 119.967 252.077 115.706C252.205 111.436 251.466 107.184 249.907 103.207C248.347 99.2295 245.998 95.6088 243.001 92.5625C240.005 89.5162 236.422 87.1073 232.47 85.4809C228.517 83.8545 224.276 83.0442 220.002 83.0987V83.1287Z" fill="white"/>
<path d="M868.668 175.608L821.08 51.7402H856.296L884.522 131.532L912.076 51.7402H946.241L899.35 175.608H868.668Z" fill="white"/>
<path d="M669.415 68.9889V0.174072H703.929V34.4914H738.443V68.9829L669.415 68.9889Z" fill="#E56919"/>
<path d="M709.857 175.608C684.579 175.608 669.589 160.454 669.589 135.193V86.4116H703.929V127.877C703.795 130.39 704.197 132.903 705.109 135.249C706.022 137.595 707.423 139.72 709.22 141.483C711.017 143.246 713.169 144.607 715.533 145.475C717.897 146.343 720.419 146.699 722.931 146.518H734.263L734.611 175.788H709.857V175.608Z" fill="white"/>
<path d="M797.021 0.174072H762.507V34.6655H797.021V0.174072Z" fill="#E56919"/>
<path d="M797.202 51.7402H762.159V175.434H797.202V51.7402Z" fill="white"/>
<path d="M1041.08 137.107C1038.34 140.768 1034.79 143.743 1030.71 145.798C1026.62 147.854 1022.12 148.935 1017.55 148.955C1009.8 148.977 1002.36 145.924 996.872 140.468C991.379 135.012 988.28 127.598 988.256 119.859H1080.46L1080.63 118.118C1080.81 116.03 1080.98 114.109 1080.98 112.195V111.673C1080.81 76.653 1053.96 51.218 1017.18 51.218C980.401 51.218 953.742 77.3492 953.742 113.239C953.742 149.303 980.413 175.434 1017.2 175.434C1029.44 175.927 1041.56 172.758 1051.99 166.334C1062.42 159.91 1070.7 150.522 1075.77 139.37L1076.64 136.933H1041.08L1041.08 137.107ZM1017.4 77.3492C1024.4 77.339 1031.15 79.9128 1036.36 84.5757C1041.57 89.2387 1044.87 95.6617 1045.63 102.61H989.319C990.012 95.6609 993.274 89.2201 998.468 84.548C1003.66 79.8759 1010.41 77.3088 1017.4 77.3492Z" fill="white"/>
<path d="M456.735 137.107C453.996 140.768 450.446 143.743 446.362 145.798C442.277 147.854 437.772 148.935 433.199 148.955C425.454 148.977 418.018 145.924 412.525 140.468C407.033 135.012 403.934 127.598 403.91 119.859H496.113L496.287 118.118C496.461 116.03 496.636 114.109 496.636 112.195V111.673C496.461 76.653 469.61 51.218 432.832 51.218C396.054 51.218 369.396 77.3492 369.396 113.239C369.396 149.303 396.066 175.434 432.851 175.434C445.096 175.927 457.21 172.758 467.643 166.334C478.077 159.91 486.356 150.522 491.423 139.37L492.293 136.933H456.729L456.735 137.107ZM433.055 77.3492C440.049 77.339 446.8 79.9128 452.01 84.5757C457.221 89.2387 460.522 95.6617 461.281 102.61H404.973C405.665 95.6609 408.927 89.2201 414.121 84.548C419.315 79.8759 426.067 77.3088 433.055 77.3492Z" fill="white"/>
<path d="M346.905 0.174072H312.391V34.6655H346.905V0.174072Z" fill="#E56919"/>
<path d="M312.415 51.5662V179.089C312.426 183.914 310.525 188.547 307.128 191.975C303.73 195.403 299.112 197.347 294.284 197.382H286.591V227H304.548C315.78 226.989 326.548 222.525 334.491 214.588C342.433 206.651 346.9 195.889 346.911 184.664V51.5662H312.415Z" fill="white"/>
<path d="M36.9581 129.089C34.5422 124.152 33.2891 118.728 33.2947 113.233C33.0895 108.951 33.7676 104.673 35.2868 100.665C36.806 96.6563 39.1338 93.0028 42.1256 89.9313C45.1175 86.8599 48.7094 84.436 52.6782 82.8104C56.647 81.1849 60.9079 80.3923 65.1962 80.482C70.8731 80.4632 76.4586 81.9103 81.4112 84.6831L103.728 62.381C92.2421 55.0169 78.8411 51.195 65.1962 51.392C27.3672 51.392 -0.000101611 77.5232 -0.000101611 113.209C-0.201647 127.492 4.67853 141.383 13.7706 152.406L36.9581 129.089Z" fill="#E56919"/>
<path d="M93.4403 97.0405C95.9565 102.066 97.2136 107.627 97.1036 113.245C97.222 117.569 96.4821 121.874 94.9267 125.911C93.3712 129.948 91.0311 133.637 88.0413 136.765C85.0503 139.754 81.4889 142.111 77.5685 143.696C73.6482 145.282 69.4489 146.064 65.2202 145.996C59.409 146.046 53.6902 144.542 48.6568 141.639L26.4963 163.935C38.0289 171.351 51.483 175.228 65.1961 175.086C103.031 175.086 130.392 149.129 130.392 113.413C130.616 99.0434 125.667 85.0715 116.448 74.0422L93.4403 97.0405Z" fill="white"/>
<path d="M644.486 125.26H610.321C610.146 125.956 609.798 126.653 609.624 127.349C607.422 132.872 603.592 137.596 598.642 140.894C593.693 144.192 587.857 145.908 581.908 145.816C564.3 145.816 551.4 132.054 551.4 113.065C551.134 108.902 551.727 104.729 553.141 100.804C554.555 96.8793 556.761 93.2864 559.621 90.2481C562.481 87.2098 565.935 84.7908 569.769 83.1408C573.602 81.4909 577.734 80.6451 581.908 80.6561C588.921 80.6013 595.743 82.9291 601.258 87.2579C602.668 88.3989 603.954 89.6843 605.096 91.0929C606.688 92.8828 608.036 94.8745 609.107 97.0165C609.501 97.7881 609.794 98.6071 609.978 99.4532H644.144C643.438 95.3334 642.267 91.3067 640.655 87.4499C640.655 87.4268 640.652 87.4038 640.643 87.3823C640.635 87.3608 640.622 87.3413 640.605 87.325C640.589 87.3086 640.57 87.2959 640.548 87.2874C640.527 87.279 640.504 87.275 640.48 87.2759C639.61 85.3614 639.087 84.137 639.087 84.137C629.148 63.2333 608.405 50.5278 582.082 50.5278C543.557 50.5278 516.538 76.3349 516.538 113.071C516.538 149.681 544.079 176.136 581.908 176.136H582.779C595.739 176.424 608.457 172.6 619.106 165.212C629.755 157.825 637.787 147.254 642.048 135.019C642.871 132.618 643.568 130.176 644.138 127.703V127.523C644.312 126.653 644.312 125.956 644.486 125.26Z" fill="white"/>
</g>
<defs>
<clipPath id="clip0_280_5">
<rect width="1081" height="227" fill="white"/>
</clipPath>
</defs>
</svg>
